HIERARCHY
ROOT Hips
{
	OFFSET 0.000000 0.000000 0.000000
	CHANNELS 6 Xposition Yposition Zposition Zrotation Yrotation Xrotation 
	JOINT LowerBack
	{
		OFFSET 0.000000 0.000000 0.000000
		CHANNELS 3 Zrotation Yrotation Xrotation
		JOINT Spine
		{
			OFFSET 0.028270 2.035590 -0.193380
			CHANNELS 3 Zrotation Yrotation Xrotation
			JOINT Spine1
			{
				OFFSET 0.056720 2.048850 -0.042750
				CHANNELS 3 Zrotation Yrotation Xrotation
				JOINT Neck
				{
					OFFSET 0.000000 0.000000 0.000000
					CHANNELS 3 Zrotation Yrotation Xrotation
					JOINT Neck1
					{
						OFFSET -0.054170 1.746240 0.172020
						CHANNELS 3 Zrotation Yrotation Xrotation
						JOINT Head
						{
							OFFSET 0.104070 1.761360 -0.123970
							CHANNELS 3 Zrotation Yrotation Xrotation
							End Site
							{
								OFFSET 0.000000 0.000000 0.000000
							}
						}
					}
				}
				JOINT LeftShoulder
				{
					OFFSET 0.000000 0.000000 0.000000
					CHANNELS 3 Zrotation Yrotation Xrotation
					JOINT LeftArm
					{
						OFFSET 3.362410 1.200890 -0.311210
						CHANNELS 3 Zrotation Yrotation Xrotation
						JOINT LeftForeArm
						{
							OFFSET 4.983000 -0.000000 -0.000000
							CHANNELS 3 Zrotation Yrotation Xrotation
							JOINT LeftHand
							{
								OFFSET 3.483560 -0.000000 -0.000000
								CHANNELS 3 Zrotation Yrotation Xrotation
								JOINT LeftFingerBase
								{
									OFFSET 0.000000 0.000000 0.000000
									CHANNELS 3 Zrotation Yrotation Xrotation
									JOINT LeftHandIndex1
									{
										OFFSET 0.715260 -0.000000 -0.000000
										CHANNELS 3 Zrotation Yrotation Xrotation
										End Site
										{
											OFFSET 0.000000 0.000000 0.000000
										}
									}
								}
								JOINT LThumb
								{
									OFFSET 0.000000 0.000000 0.000000
									CHANNELS 3 Zrotation Yrotation Xrotation
									End Site
									{
										OFFSET 0.000000 0.000000 0.000000
									}
								}
							}
						}
					}
				}
				JOINT RightShoulder
				{
					OFFSET 0.000000 0.000000 0.000000
					CHANNELS 3 Zrotation Yrotation Xrotation
					JOINT RightArm
					{
						OFFSET -3.136600 1.374050 -0.404650
						CHANNELS 3 Zrotation Yrotation Xrotation
						JOINT RightForeArm
						{
							OFFSET -5.241900 -0.000000 -0.000000
							CHANNELS 3 Zrotation Yrotation Xrotation
							JOINT RightHand
							{
								OFFSET -3.444170 -0.000000 -0.000000
								CHANNELS 3 Zrotation Yrotation Xrotation
								JOINT RightFingerBase
								{
									OFFSET 0.000000 0.000000 0.000000
									CHANNELS 3 Zrotation Yrotation Xrotation
									JOINT RightHandIndex1
									{
										OFFSET -0.622530 -0.000000 -0.000000
										CHANNELS 3 Zrotation Yrotation Xrotation
										End Site
										{
											OFFSET 0.000000 0.000000 0.000000
										}
									}
								}
								JOINT RThumb
								{
									OFFSET 0.000000 0.000000 0.000000
									CHANNELS 3 Zrotation Yrotation Xrotation
									End Site
									{
										OFFSET 0.000000 0.000000 0.000000
									}
								}
							}
						}
					}
				}
			}
		}
	}
}
}
MOTION
Frames: 15
Frame Time: 0.008333
-13.532082 17.013723 -1.448068 -71.859590 89.582294 -48.708459 -4.194990 -0.232017 -7.012566 -1.533181 -0.105992 -4.207929 -5.412857 -0.144395 0.435691 13.130986 -6.525476 -5.993583 -2.029887 -0.173815 0.409231 0.000000 0.000000 0.000000 0.215176 11.541827 2.029133 -59.109243 9.089413 -11.300369 -0.304567 -82.865521 -0.030948 7.321844 2.420564 0.146532 -0.178344 0.214017 -0.000000 0.000000 0.000000 0.000000 0.000000 0.000000 0.000000 8.915938 0.129223 -0.171204 53.857040 29.743251 7.888573 179.912321 89.000112 -179.973339 3.422745 6.060283 0.202011 -0.065165 -0.528151 -0.000000 0.000000 0.000000 0.000000 0.000000 0.000000 0.000000 
-13.355430 16.957361 -1.456659 -72.779327 89.698799 -50.033483 -4.411014 -0.323754 -6.824948 -1.589842 -0.174490 -4.179005 -5.497724 -0.209787 0.379324 13.410389 -6.477187 -5.897022 -2.034739 -0.175082 0.430671 0.000000 0.000000 0.000000 0.134648 11.496410 2.043536 -59.118146 9.002599 -11.516825 -0.334675 -82.347001 -0.032345 7.675301 2.524571 0.160713 -0.180744 0.211173 0.000000 0.000000 0.000000 0.000000 0.000000 0.000000 0.000000 9.122923 0.122406 -0.284644 54.529902 29.664031 7.559142 179.932028 89.038610 -179.978139 2.750644 6.386606 0.170971 -0.054678 -0.537560 -0.000000 0.000000 0.000000 0.000000 0.000000 0.000000 0.000000 
-13.181101 16.907226 -1.463770 -74.735983 89.855225 -52.406075 -4.632583 -0.414744 -6.605572 -1.648004 -0.240437 -4.143457 -5.585314 -0.271953 0.320848 13.642454 -6.443541 -5.802685 -2.041948 -0.176443 0.451163 0.000000 0.000000 0.000000 0.022043 11.452082 2.056426 -59.082854 8.728253 -11.606181 -0.373920 -81.668590 -0.033878 8.067507 2.630940 0.176592 -0.183601 0.208283 0.000000 0.000000 0.000000 0.000000 0.000000 0.000000 0.000000 9.305960 0.089322 -0.409048 55.333029 29.534220 7.285846 179.958293 89.176933 -179.983706 1.971642 6.628898 0.127531 -0.042391 -0.544698 0.000000 0.000000 0.000000 0.000000 0.000000 0.000000 0.000000 
-13.008784 16.864596 -1.469214 102.100085 89.949541 124.018603 -4.865741 -0.501538 -6.371229 -1.709067 -0.300428 -4.104139 -5.675110 -0.327654 0.263596 13.829099 -6.424000 -5.711630 -2.052925 -0.178009 0.470614 0.000000 0.000000 0.000000 -0.114795 11.412240 2.065473 -59.014102 8.270987 -11.568173 -0.421133 -80.847506 -0.035489 8.486627 2.734744 0.193670 -0.186748 0.205422 0.000000 0.000000 0.000000 0.000000 0.000000 0.000000 0.000000 9.475819 0.032191 -0.539930 56.242415 29.350326 7.082149 179.989571 89.406986 -179.990032 1.116225 6.777661 0.074689 -0.028899 -0.549279 -0.000000 0.000000 0.000000 0.000000 0.000000 0.000000 0.000000 
-12.838047 16.830348 -1.473075 97.756103 89.720608 119.280456 -5.112767 -0.579477 -6.138234 -1.773363 -0.350260 -4.064121 -5.765996 -0.373049 0.209942 13.972261 -6.415249 -5.623526 -2.068851 -0.179896 0.489359 0.000000 0.000000 0.000000 -0.271008 11.377140 2.068635 -58.923857 7.650639 -11.409258 -0.474432 -79.915786 -0.037100 8.915964 2.831930 0.211148 -0.189978 0.202640 0.000000 0.000000 0.000000 0.000000 0.000000 0.000000 0.000000 9.641252 -0.042633 -0.671622 57.225074 29.112485 6.960328 -179.976016 89.718631 -179.996950 0.227663 6.835057 0.017042 -0.014994 -0.551249 0.000000 0.000000 0.000000 0.000000 0.000000 0.000000 0.000000 
-12.668583 16.804979 -1.475402 92.295698 89.455333 113.447742 -5.381530 -0.645352 -5.915858 -1.842041 -0.386518 -4.024663 -5.856323 -0.405089 0.163465 14.077218 -6.414440 -5.539102 -2.090747 -0.182179 0.507278 0.000000 0.000000 0.000000 -0.434988 11.354323 2.064330 -58.829827 6.882918 -11.135944 -0.532037 -78.905617 -0.038627 9.333350 2.918312 0.228324 -0.193057 0.200053 0.000000 0.000000 0.000000 0.000000 0.000000 0.000000 0.000000 9.814473 -0.129153 -0.798479 58.242179 28.830283 6.932637 0.060397 89.899053 -0.003571 -0.643460 6.814017 -0.039913 -0.001548 -0.550784 0.000000 0.000000 0.000000 0.000000 0.000000 0.000000 0.000000 
-12.500099 16.788574 -1.476648 85.981536 89.156915 106.784930 -5.666109 -0.694611 -5.711987 -1.913223 -0.405597 -3.987447 -5.943945 -0.420597 0.125160 14.146499 -6.416400 -5.457109 -2.118998 -0.184918 0.524907 0.000000 0.000000 0.000000 -0.603234 11.343359 2.051546 -58.748150 6.002211 -10.762284 -0.591477 -77.863651 -0.039983 9.714709 2.992540 0.244101 -0.195758 0.197716 0.000000 0.000000 0.000000 0.000000 0.000000 0.000000 0.000000 9.999763 -0.217495 -0.914672 59.254027 28.512929 7.008654 0.096840 89.457746 -0.009611 -1.438829 6.735100 -0.090878 0.010496 -0.548220 0.000000 0.000000 0.000000 0.000000 0.000000 0.000000 0.000000 
-12.332402 16.780852 -1.477123 79.134926 88.821768 99.609694 -5.961587 -0.724644 -5.528018 -1.985217 -0.405516 -3.952817 -6.026688 -0.417871 0.095807 14.184407 -6.417352 -5.376800 -2.153545 -0.188122 0.542514 0.000000 0.000000 0.000000 -0.768559 11.345354 2.029949 -58.695360 5.040202 -10.303234 -0.650412 -76.835105 -0.041098 10.035828 3.054702 0.257779 -0.197890 0.195722 -0.000000 0.000000 0.000000 0.000000 0.000000 0.000000 0.000000 10.200886 -0.299531 -1.015232 60.224910 28.173617 7.196072 0.131909 88.969395 -0.014587 -2.100062 6.622064 -0.131355 0.020256 -0.543987 0.000000 0.000000 0.000000 0.000000 0.000000 0.000000 0.000000 
-12.165337 16.781311 -1.477590 72.152286 88.458387 92.316665 -6.243152 -0.733711 -5.366761 -2.052297 -0.386743 -3.921904 -6.102292 -0.397536 0.074027 14.191342 -6.412845 -5.296289 -2.193585 -0.191774 0.560857 0.000000 0.000000 0.000000 -0.932717 11.352605 1.999896 -58.683630 4.040416 -9.778132 -0.706213 -75.871369 -0.041916 10.274256 3.107447 0.268758 -0.199302 0.194122 -0.000000 0.000000 0.000000 0.000000 0.000000 0.000000 0.000000 10.411571 -0.366721 -1.096381 61.125557 27.821255 7.498733 0.164219 88.446839 -0.018056 -2.571490 6.499049 -0.158444 0.026927 -0.538531 0.000000 0.000000 0.000000 0.000000 0.000000 0.000000 0.000000 
-11.998948 16.789240 -1.478093 65.415877 88.059268 85.280431 -6.507380 -0.724910 -5.221498 -2.113390 -0.352500 -3.893323 -6.169118 -0.362700 0.059828 14.173945 -6.402120 -5.216111 -2.238144 -0.195782 0.579656 0.000000 0.000000 0.000000 -1.083853 11.365622 1.962518 -58.725033 3.024070 -9.200674 -0.757217 -75.005061 -0.042411 10.412294 3.153432 0.276639 -0.199895 0.193077 0.000000 0.000000 0.000000 0.000000 0.000000 0.000000 0.000000 10.632676 -0.416468 -1.155742 61.936242 27.468844 7.916156 0.193323 87.902757 -0.019690 -2.807841 6.384053 -0.170147 0.029894 -0.532240 0.000000 0.000000 0.000000 0.000000 0.000000 0.000000 0.000000 
-11.833183 16.803807 -1.479250 59.220870 87.642004 78.797568 -6.725959 -0.702385 -5.093030 -2.162417 -0.309150 -3.867844 -6.225606 -0.319582 0.050353 14.131895 -6.383671 -5.134857 -2.285727 -0.200065 0.599522 0.000000 0.000000 0.000000 -1.225411 11.367959 1.919543 -58.822539 2.030496 -8.591373 -0.801333 -74.275876 -0.042581 10.437808 3.197411 0.281425 -0.199601 0.192641 -0.000000 0.000000 0.000000 0.000000 0.000000 0.000000 0.000000 10.852271 -0.446926 -1.192053 62.645703 27.119463 8.440935 0.218584 87.351581 -0.019275 -2.774295 6.289309 -0.165566 0.028681 -0.525379 0.000000 0.000000 0.000000 0.000000 0.000000 0.000000 0.000000 
-11.668151 16.824216 -1.480946 53.806622 87.215924 73.105346 -6.894672 -0.674179 -4.974446 -2.198489 -0.264760 -3.843779 -6.271109 -0.275905 0.045329 14.070758 -6.359042 -5.054351 -2.334752 -0.204466 0.619810 0.000000 0.000000 0.000000 -1.348334 11.357466 1.873204 -58.977056 1.065960 -7.960015 -0.837965 -73.695360 -0.042447 10.346701 3.242444 0.283115 -0.198421 0.192973 -0.000000 0.000000 0.000000 0.000000 0.000000 0.000000 0.000000 11.066048 -0.461733 -1.205891 63.251900 26.777875 9.057938 0.240120 86.808497 -0.016751 -2.451723 6.217492 -0.144301 0.023015 -0.518070 0.000000 0.000000 0.000000 0.000000 0.000000 0.000000 0.000000 
-11.503844 16.849606 -1.483458 49.230320 86.807296 68.268235 -6.997101 -0.648289 -4.867378 -2.218235 -0.228437 -3.821778 -6.305249 -0.240609 0.041967 13.991286 -6.330055 -4.974415 -2.383848 -0.208894 0.640731 0.000000 0.000000 0.000000 -1.454840 11.313859 1.825835 -59.181192 0.154690 -7.323330 -0.866070 -73.279776 -0.042033 10.142480 3.293555 0.282110 -0.196350 0.194099 0.000000 0.000000 0.000000 0.000000 0.000000 0.000000 0.000000 11.263986 -0.466354 -1.197770 63.757591 26.440828 9.746131 0.257870 86.288487 -0.012211 -1.838140 6.162079 -0.106554 0.012874 -0.510249 0.000000 0.000000 0.000000 0.000000 0.000000 0.000000 0.000000 
-11.340448 16.879266 -1.486373 45.548674 86.434222 64.345103 -7.038266 -0.633481 -4.766494 -2.222862 -0.208211 -3.800322 -6.328800 -0.221446 0.040181 13.898792 -6.299684 -4.897784 -2.431693 -0.213195 0.661367 0.000000 0.000000 0.000000 -1.537077 11.235954 1.779787 -59.425808 -0.715794 -6.684730 -0.886268 -73.015187 -0.041391 9.837065 3.351963 0.278610 -0.193466 0.196132 -0.000000 0.000000 0.000000 0.000000 0.000000 0.000000 0.000000 11.442826 -0.468204 -1.170299 64.173030 26.104213 10.474745 0.272114 85.807235 -0.005896 -0.948760 6.106396 -0.053428 -0.001572 -0.501704 0.000000 0.000000 0.000000 0.000000 0.000000 0.000000 0.000000 
-11.177862 16.912488 -1.489621 42.692816 86.122266 61.277530 -7.014260 -0.635961 -4.675409 -2.211798 -0.210459 -3.780484 -6.342910 -0.224777 0.037421 13.794979 -6.271924 -4.824716 -2.477713 -0.217331 0.681770 0.000000 0.000000 0.000000 -1.596054 11.103871 1.736820 -59.695547 -1.535339 -6.056238 -0.898460 -72.895755 -0.040557 9.449002 3.419435 0.273214 -0.189827 0.199040 -0.000000 0.000000 0.000000 0.000000 0.000000 0.000000 0.000000 11.598330 -0.476095 -1.124941 64.507209 25.760029 11.212134 0.282840 85.377602 0.001813 0.180885 6.024440 0.012580 -0.019781 -0.492066 0.000000 0.000000 0.000000 0.000000 0.000000 0.000000 0.000000 
